# xmcd
#
# Track frame offsets:
#	150
#	12715
#	26964
#	40764
#	53214
#	69938
#	84337
#	102595
#	120369
#	133943
#	145343
#	158617
#
# Disc length: 2333 seconds
# Revision: 2
# Processed by: cddbd v1.5.2PL0 Copyright (c) Steve Scherf et al.
# Submitted via: dBpowerAMP V12.0
#
DISCID=a2091b0c
DTITLE=Eilen Jewell - Sea of Tears
DYEAR=2009
DGENRE=Country
TTITLE0=Rain Roll In
TTITLE1=Sweet Rose
TTITLE2=Shakin' All Over
TTITLE3=Sea of Tears
TTITLE4=Fading Memory
TTITLE5=Nowhere in No Time
TTITLE6=I'm Gonna Dress in Black
TTITLE7=One of Those Days
TTITLE8=Final Hour
TTITLE9=The Darkest Day
TTITLE10=Everywhere I Go
TTITLE11=Codeine Arms
EXTD=
EXTT0=
EXTT1=
EXTT2=
EXTT3=
EXTT4=
EXTT5=
EXTT6=
EXTT7=
EXTT8=
EXTT9=
EXTT10=
EXTT11=
PLAYORDER=
